# xmcd
#
# Track frame offsets: 
#        150
#        13529
#        27389
#        39719
#        53951
#        70062
#        80859
#        96011
#        109586
#        123901
#        139231
#        152221
#        167981
#
# Disc length: 2455 seconds
#
# Revision: 0
# Processed by: cddbd v1.5.2PL0 Copyright (c) Steve Scherf et al.
# Submitted via: ExactAudioCopy v1.0b1
#
DISCID=b009950d
DTITLE=Albedo - Warm September Night
DYEAR=2011
DGENRE=Bluegrass
TTITLE0=Creepin' In (Lee Alexander)
TTITLE1=Last Train from Poor Valley (Norman Blake)
TTITLE2=Just a Fool (Christina Bishop)
TTITLE3=Leavin' Louisiana (Donavan Cowart and Rodney Crowell)
TTITLE4=Don't Think Twice (Bob Dylan)
TTITLE5=Blue Moon Nights (John Fogerty)
TTITLE6=Somewhere Between (Merle Haggard)
TTITLE7=There You Go (Johnny Cash)
TTITLE8=The Lucky One (Robert Lee Castleman)
TTITLE9=Paradise (John Prine)
TTITLE10=Waiting For You (Richard E. Bennett)
TTITLE11=Warm September Night (Christina Bishop)
TTITLE12=Daley's Reel (Traditional Arr. Leeland Wareham)
EXTD=
EXTT0=
EXTT1=
EXTT2=
EXTT3=
EXTT4=
EXTT5=
EXTT6=
EXTT7=
EXTT8=
EXTT9=
EXTT10=
EXTT11=
EXTT12=
PLAYORDER=
